<?xml version="1.0" encoding="UTF-8"?>
<svg width="512" height="512" viewBox="0 0 512 512" fill="none" xmlns="http://www.w3.org/2000/svg">
  <!-- Définition des dégradés et effets -->
  <defs>
    <linearGradient id="robotGrad" x1="0%" y1="0%" x2="100%" y2="100%">
      <stop offset="0%" style="stop-color:#4299E1;stop-opacity:1" />
      <stop offset="100%" style="stop-color:#2B6CB0;stop-opacity:1" />
    </linearGradient>
    <filter id="robotShadow" x="-20%" y="-20%" width="140%" height="140%">
      <feGaussianBlur in="SourceAlpha" stdDeviation="3"/>
      <feOffset dx="2" dy="4" result="offsetblur"/>
      <feComponentTransfer>
        <feFuncA type="linear" slope="0.3"/>
      </feComponentTransfer>
      <feMerge>
        <feMergeNode/>
        <feMergeNode in="SourceGraphic"/>
      </feMerge>
    </filter>
  </defs>

  <!-- Cercle de fond -->
  <circle cx="256" cy="256" r="256" fill="url(#robotGrad)" filter="url(#robotShadow)"/>

  <!-- Robot stylisé -->
  <g transform="translate(128, 96)" fill="#FFFFFF">
    <!-- Tête -->
    <rect x="64" y="32" width="128" height="128" rx="32" fill="#FFFFFF"/>
    
    <!-- Yeux -->
    <circle cx="112" cy="96" r="16" fill="#2B6CB0"/>
    <circle cx="144" cy="96" r="16" fill="#2B6CB0"/>
    
    <!-- Antennes -->
    <rect x="96" y="0" width="8" height="32" rx="4" fill="#FFFFFF"/>
    <rect x="152" y="0" width="8" height="32" rx="4" fill="#FFFFFF"/>
    <circle cx="100" cy="0" r="8" fill="#FFFFFF"/>
    <circle cx="156" cy="0" r="8" fill="#FFFFFF"/>
    
    <!-- Corps -->
    <rect x="48" y="176" width="160" height="144" rx="32" fill="#FFFFFF"/>
    
    <!-- Boutons -->
    <circle cx="96" cy="224" r="12" fill="#2B6CB0"/>
    <circle cx="128" cy="224" r="12" fill="#2B6CB0"/>
    <circle cx="160" cy="224" r="12" fill="#2B6CB0"/>
    
    <!-- Bras -->
    <rect x="0" y="192" width="32" height="96" rx="16" fill="#FFFFFF"/>
    <rect x="224" y="192" width="32" height="96" rx="16" fill="#FFFFFF"/>
  </g>

  <!-- Effet de brillance -->
  <circle cx="192" cy="192" r="64" fill="#FFFFFF" opacity="0.1"/>
  
  <!-- Points décoratifs -->
  <circle cx="128" cy="384" r="8" fill="#FFFFFF" opacity="0.6"/>
  <circle cx="384" cy="384" r="8" fill="#FFFFFF" opacity="0.6"/>
  <circle cx="384" cy="128" r="8" fill="#FFFFFF" opacity="0.6"/>
</svg>
